<?xml version="1.0" encoding="UTF-8" standalone="no"?>
<!-- Created with Inkscape (http://www.inkscape.org/) -->

<svg
   xmlns:dc="http://purl.org/dc/elements/1.1/"
   xmlns:cc="http://creativecommons.org/ns#"
   xmlns:rdf="http://www.w3.org/1999/02/22-rdf-syntax-ns#"
   xmlns:svg="http://www.w3.org/2000/svg"
   xmlns="http://www.w3.org/2000/svg"
   xmlns:sodipodi="http://sodipodi.sourceforge.net/DTD/sodipodi-0.dtd"
   xmlns:inkscape="http://www.inkscape.org/namespaces/inkscape"
   width="55"
   height="55"
   id="svg3006"
   version="1.1"
   inkscape:version="0.48.2 r9819"
   sodipodi:docname="black-pawn.svg">
  <defs
     id="defs3008" />
  <sodipodi:namedview
     id="base"
     pagecolor="#ffffff"
     bordercolor="#666666"
     borderopacity="1.0"
     inkscape:pageopacity="0.0"
     inkscape:pageshadow="2"
     inkscape:zoom="6.6241962"
     inkscape:cx="11.706794"
     inkscape:cy="42.344762"
     inkscape:document-units="px"
     inkscape:current-layer="layer1"
     showgrid="false"
     fit-margin-top="0"
     fit-margin-left="0"
     fit-margin-right="0"
     fit-margin-bottom="0"
     inkscape:window-width="1280"
     inkscape:window-height="744"
     inkscape:window-x="0"
     inkscape:window-y="27"
     inkscape:window-maximized="1" />
  <metadata
     id="metadata3011">
    <rdf:RDF>
      <cc:Work
         rdf:about="">
        <dc:format>image/svg+xml</dc:format>
        <dc:type
           rdf:resource="http://purl.org/dc/dcmitype/StillImage" />
        <dc:title></dc:title>
      </cc:Work>
    </rdf:RDF>
  </metadata>
  <g
     inkscape:label="Layer 1"
     inkscape:groupmode="layer"
     id="layer1"
     transform="translate(-586.53246,-368.27837)">
    <path
       inkscape:connector-curvature="0"
       d="m 597.69315,420.27837 c -0.051,-0.61225 -0.0765,-1.81123 -0.0765,-3.59694 0,-6.42857 1.9898,-11.19898 5.96938,-14.31122 1.17347,-0.96939 2.60198,-1.86224 4.28572,-2.67857 -1.98979,-0.61225 -3.34183,-2.11734 -4.05612,-4.5153 -0.20409,-0.76531 -0.30612,-1.55613 -0.30612,-2.37245 0,-3.41838 1.7602,-5.84184 5.2806,-7.27042 -0.91843,-1.5306 -1.37761,-2.98469 -1.37754,-4.36224 -7e-5,-2.29591 1.12239,-4.0051 3.36735,-5.12755 1.02033,-0.5102 2.11728,-0.76531 3.29081,-0.76531 2.55096,0 4.43871,0.9949 5.66326,2.9847 0.56116,0.86735 0.84178,1.83674 0.84184,2.90816 -6e-5,1.4796 -0.43373,2.93367 -1.30103,4.36224 1.88771,0.76531 3.23975,1.78572 4.05613,3.06122 0.81626,1.37756 1.22442,2.78062 1.2245,4.2092 -8e-5,2.65305 -0.91844,4.66836 -2.75511,6.04591 -0.45925,0.40816 -0.96945,0.68878 -1.53062,0.84184 4.69382,2.39796 7.72954,5.53572 9.10715,9.41327 0.71422,2.14285 1.07136,4.66835 1.07142,7.57652 -6e-5,1.78571 -0.0256,2.98469 -0.0765,3.59694 l -32.67858,0"
       id="path1722"
       style="font-size:12px;font-style:normal;font-weight:normal;fill:#000000;fill-opacity:1;stroke:#ffffff;font-family:Bitstream Vera Sans;stroke-opacity:1" />
  </g>
</svg>
