<?xml version="1.0" encoding="UTF-8" standalone="no"?>
<!-- Created with Inkscape (http://www.inkscape.org/) -->

<svg
   xmlns:dc="http://purl.org/dc/elements/1.1/"
   xmlns:cc="http://creativecommons.org/ns#"
   xmlns:rdf="http://www.w3.org/1999/02/22-rdf-syntax-ns#"
   xmlns:svg="http://www.w3.org/2000/svg"
   xmlns="http://www.w3.org/2000/svg"
   version="1.1"
   width="55"
   height="55"
   id="svg3006">
  <defs
     id="defs3008" />
  <metadata
     id="metadata3011">
    <rdf:RDF>
      <cc:Work
         rdf:about="">
        <dc:format>image/svg+xml</dc:format>
        <dc:type
           rdf:resource="http://purl.org/dc/dcmitype/StillImage" />
        <dc:title></dc:title>
      </cc:Work>
    </rdf:RDF>
  </metadata>
  <rect
     width="14.540809"
     height="22.172871"
     rx="15.125645"
     ry="0"
     x="20.46714"
     y="16.430084"
     id="rect2983"
     style="fill:#ffffff;fill-opacity:1;stroke:#ffffff;stroke-width:2.24577546;stroke-linecap:round;stroke-linejoin:round;stroke-miterlimit:4;stroke-opacity:1;stroke-dasharray:none" />
  <g
     transform="translate(-586.53246,-368.27837)"
     id="layer1"
     style="stroke:#ffffff;stroke-opacity:1">
    <path
       d="m 610.51234,402.02838 c -2.44259,0 -3.66386,0.38314 -3.66378,1.14942 -8e-5,0.67049 1.07752,1.07759 3.23275,1.22126 l 3.95115,0 c 4.78921,0 7.18385,-0.40709 7.1839,-1.22126 -5e-5,-0.76628 -1.22132,-1.14942 -3.66378,-1.14942 l -7.04023,0 m 0,-4.45404 c -2.10734,0 -3.28071,0.23948 -3.52011,0.71839 -0.0959,0.0958 -0.14375,0.23947 -0.14368,0.43104 -8e-5,0.52682 0.5028,0.83812 1.5086,0.93391 1.24517,0.14368 3.13693,0.21552 5.6753,0.21552 2.53827,0 4.45397,-0.0718 5.74712,-0.21552 0.9578,-0.0958 1.43673,-0.40709 1.43678,-0.93391 -5e-5,-0.76628 -1.22132,-1.14943 -3.66378,-1.14943 l -7.04023,0 m 13.36207,3.08908 1.43678,5.53161 c -6e-5,1.67626 -1.70026,2.65805 -5.10058,2.9454 2.49037,0.95786 4.81317,1.4368 6.96839,1.4368 0.28731,0 1.70014,-0.0719 4.23851,-0.21552 2.10723,0 3.83136,1.10153 5.17242,3.3046 0.19151,0.38314 0.43098,0.81417 0.71839,1.2931 l -2.58621,3.95114 c -0.76634,0.95786 -1.58052,1.58047 -2.44252,1.86782 -4.3354,-4.89795 -33.02939,-4.16306 -36.27875,-0.50287 -0.0958,0.14367 -0.16764,0.3113 -0.21552,0.50287 -1.24519,-0.52682 -2.41858,-1.72414 -3.52012,-3.59195 -0.43104,-0.76628 -0.9339,-1.50862 -1.50861,-2.22701 1.2931,-2.39464 2.68199,-3.83141 4.16666,-4.31035 0.52683,-0.19157 1.10154,-0.28735 1.72414,-0.28735 0,0 1.41284,0.0718 4.23851,0.21552 2.20306,0 4.52586,-0.47894 6.96839,-1.4368 -3.40038,-0.28735 -5.10057,-1.26914 -5.10057,-2.9454 0,-0.14367 0.38314,-1.36493 1.14943,-3.66379 0.23945,-0.76628 0.35919,-1.29311 0.35919,-1.58046 -2.92146,-3.54405 -4.38218,-6.68103 -4.38218,-9.41091 0,-3.16093 1.55651,-6.03449 4.66953,-8.62069 2.77773,-2.34676 4.78922,-3.59196 6.03449,-3.73564 -1.0537,-1.2931 -1.58052,-2.63411 -1.58046,-4.02299 -6e-5,-2.25096 1.12542,-3.63984 3.37644,-4.16667 0.52676,-0.14362 1.07753,-0.21545 1.6523,-0.21551 2.39457,6e-5 3.95108,0.88602 4.66953,2.65804 l 0.3592,1.50862 0,0.21552 c -6e-5,1.341 -0.52688,2.68199 -1.58046,4.02299 0.9099,0.23947 2.27484,0.98181 4.09483,2.22702 4.40607,3.06512 6.60914,6.44157 6.6092,10.12931 -6e-5,2.77777 -1.43685,5.81896 -4.31035,9.12355 m -6.03448,-9.98562 0,-2.7299 -7.61495,0 0,2.7299 m 3.80748,-16.95403 c -0.95792,0 -1.55658,0.43103 -1.79599,1.29311 l -0.0718,0.43102 c -6e-5,0.90997 0.47887,1.48468 1.43678,1.72415 0.14362,0.0479 0.2873,0.0718 0.43104,0.0718 1.19725,0 1.79591,-0.59865 1.79597,-1.79598 -6e-5,-1.14942 -0.59872,-1.72413 -1.79597,-1.72413"
       id="path1731"
       style="font-size:12px;font-style:normal;font-weight:normal;fill:#000000;fill-opacity:1;stroke:#ffffff;stroke-opacity:1;font-family:Bitstream Vera Sans" />
  </g>
</svg>
