<?xml version="1.0" encoding="UTF-8" standalone="no"?>
<!-- Created with Inkscape (http://www.inkscape.org/) -->

<svg
   xmlns:dc="http://purl.org/dc/elements/1.1/"
   xmlns:cc="http://creativecommons.org/ns#"
   xmlns:rdf="http://www.w3.org/1999/02/22-rdf-syntax-ns#"
   xmlns:svg="http://www.w3.org/2000/svg"
   xmlns="http://www.w3.org/2000/svg"
   version="1.0"
   width="55"
   height="55"
   viewBox="0 0 55 55"
   id="svg2">
  <metadata
     id="metadata11">
    <rdf:RDF>
      <cc:Work
         rdf:about="">
        <dc:format>image/svg+xml</dc:format>
        <dc:type
           rdf:resource="http://purl.org/dc/dcmitype/StillImage" />
        <dc:title></dc:title>
      </cc:Work>
    </rdf:RDF>
  </metadata>
  <defs
     id="defs9" />
  <g
     transform="translate(2.6196361,1.911011)"
     id="g4016">
    <g
       transform="translate(5e-5,0.09543946)"
       id="g4010">
      <rect
         width="10"
         height="9.999999"
         rx="0"
         x="14.880314"
         y="35.514786"
         id="rect2988-1-3-5-3-4-9-3"
         style="fill:#000000;fill-opacity:1;stroke:none" />
      <rect
         width="10"
         height="9.999999"
         rx="0"
         x="-45.514786"
         y="4.8803144"
         transform="matrix(0,-1,1,0,0,0)"
         id="rect2988-8"
         style="fill:#ffffff;fill-opacity:1;stroke:none" />
      <rect
         width="10"
         height="9.999999"
         rx="0"
         x="-45.514786"
         y="24.880316"
         transform="matrix(0,-1,1,0,0,0)"
         id="rect2988-1-3-5-3-4-9-5"
         style="fill:#ffffff;fill-opacity:1;stroke:none" />
      <rect
         width="10"
         height="9.999999"
         rx="0"
         x="34.880314"
         y="35.514786"
         id="rect2988-1-3-5"
         style="fill:#000000;fill-opacity:1;stroke:none" />
    </g>
    <g
       transform="translate(5e-5,-0.09543819)"
       id="g3998">
      <rect
         width="10"
         height="9.999999"
         rx="0"
         x="14.880314"
         y="15.705464"
         id="rect2988-1"
         style="fill:#000000;fill-opacity:1;stroke:none" />
      <rect
         width="10"
         height="9.999999"
         rx="0"
         x="-25.705463"
         y="4.8803144"
         transform="matrix(0,-1,1,0,0,0)"
         id="rect2988-1-3-5-3-4-3"
         style="fill:#ffffff;fill-opacity:1;stroke:none" />
      <rect
         width="10"
         height="9.999999"
         rx="0"
         x="-25.705463"
         y="24.880316"
         transform="matrix(0,-1,1,0,0,0)"
         id="rect2988-1-3-4"
         style="fill:#ffffff;fill-opacity:1;stroke:none" />
      <rect
         width="10"
         height="9.999999"
         rx="0"
         x="34.880314"
         y="15.705464"
         id="rect2988-1-3-5-3"
         style="fill:#000000;fill-opacity:1;stroke:none" />
    </g>
    <g
       transform="translate(5e-5,0)"
       id="g3992">
      <rect
         width="10"
         height="9.999999"
         rx="0"
         x="-15.567753"
         y="14.880315"
         transform="matrix(0,-1,1,0,0,0)"
         id="rect2988-1-3-5-3-5"
         style="fill:#ffffff;fill-opacity:1;stroke:none" />
      <rect
         width="10"
         height="9.999999"
         rx="0"
         x="4.8803139"
         y="5.5677538"
         id="rect2988"
         style="fill:#000000;fill-opacity:1;stroke:none" />
      <rect
         width="10"
         height="9.999999"
         rx="0"
         x="24.880314"
         y="5.5677538"
         id="rect2988-1-3-5-3-4"
         style="fill:#000000;fill-opacity:1;stroke:none" />
      <rect
         width="10"
         height="9.999999"
         rx="0"
         x="-15.567753"
         y="34.880314"
         transform="matrix(0,-1,1,0,0,0)"
         id="rect2988-1-3-5-0"
         style="fill:#ffffff;fill-opacity:1;stroke:none" />
    </g>
    <g
       transform="translate(5e-5,-1.2715658e-6)"
       id="g4004">
      <rect
         width="10"
         height="9.999999"
         rx="0"
         x="-35.610126"
         y="14.880315"
         transform="matrix(0,-1,1,0,0,0)"
         id="rect2988-1-5"
         style="fill:#ffffff;fill-opacity:1;stroke:none" />
      <rect
         width="10"
         height="9.999999"
         rx="0"
         x="4.8803139"
         y="25.610126"
         id="rect2988-1-3-5-3-4-9"
         style="fill:#000000;fill-opacity:1;stroke:none" />
      <rect
         width="10"
         height="9.999999"
         rx="0"
         x="24.880314"
         y="25.610126"
         id="rect2988-1-3"
         style="fill:#000000;fill-opacity:1;stroke:none" />
      <rect
         width="10"
         height="9.999999"
         rx="0"
         x="-35.610126"
         y="34.880314"
         transform="matrix(0,-1,1,0,0,0)"
         id="rect2988-1-3-5-3-4-9-3-0"
         style="fill:#ffffff;fill-opacity:1;stroke:none" />
    </g>
  </g>
</svg>
