<?xml version="1.0" encoding="UTF-8" standalone="no"?>
<!-- Created with Inkscape (http://www.inkscape.org/) -->

<svg
   xmlns:dc="http://purl.org/dc/elements/1.1/"
   xmlns:cc="http://creativecommons.org/ns#"
   xmlns:rdf="http://www.w3.org/1999/02/22-rdf-syntax-ns#"
   xmlns:svg="http://www.w3.org/2000/svg"
   xmlns="http://www.w3.org/2000/svg"
   version="1.1"
   width="55"
   height="55"
   id="svg3006">
  <defs
     id="defs3008" />
  <metadata
     id="metadata3011">
    <rdf:RDF>
      <cc:Work
         rdf:about="">
        <dc:format>image/svg+xml</dc:format>
        <dc:type
           rdf:resource="http://purl.org/dc/dcmitype/StillImage" />
        <dc:title></dc:title>
      </cc:Work>
    </rdf:RDF>
  </metadata>
  <g
     transform="matrix(0.94339623,0,0,0.94339623,-551.77591,-345.87582)"
     id="layer1"
     style="fill:#ffffff;fill-opacity:1;stroke:#000000;stroke-width:3;stroke-miterlimit:4;stroke-opacity:1;stroke-dasharray:none">
    <path
       d="m 602.14475,411.48443 c 0,0.76849 0.55235,1.15274 1.65706,1.15274 l 4.97118,-0.36023 c -6e-5,0 1.44087,-0.0721 4.32278,-0.21614 l 1.08069,0 8.42939,0.43228 1.72911,0.14409 c 1.10463,0 1.657,-0.38425 1.65706,-1.15274 -6e-5,-1.39289 -3.21813,-2.16138 -9.65419,-2.30547 l -2.23342,0 c -5.42754,0 -9.0538,0.40826 -10.87897,1.22476 -0.72046,0.28819 -1.08069,0.64844 -1.08069,1.0807 m -9.00576,-30.11528 c -0.9126,0 -1.48895,0.4563 -1.72911,1.36888 -0.048,0.14409 -0.072,0.28818 -0.072,0.43228 0,0.91259 0.4563,1.48896 1.36888,1.7291 0.14409,0.048 0.28818,0.072 0.43228,0.072 1.15273,0 1.7291,-0.60039 1.7291,-1.80115 0,-1.20076 -0.57637,-1.80115 -1.7291,-1.80115 m 9.43803,-4.53891 c -1.24879,0 -1.87319,0.60038 -1.87319,1.80115 0,1.20079 0.6244,1.80116 1.87319,1.80116 1.15274,0 1.72911,-0.60037 1.72911,-1.80116 0,-1.20076 -0.57637,-1.80115 -1.72911,-1.80115 m 22.98272,0 c -0.81659,0 -1.36894,0.40826 -1.65706,1.22479 l -0.072,0.57636 c -6e-5,1.20079 0.57631,1.80116 1.72911,1.80116 1.2007,0 1.80109,-0.60037 1.80115,-1.80116 -6e-5,-1.20076 -0.60045,-1.80115 -1.80115,-1.80115 m 9.36599,4.53891 c -1.1528,0 -1.72916,0.60039 -1.7291,1.80115 -6e-5,1.20076 0.5763,1.80115 1.7291,1.80115 1.20071,0 1.80109,-0.60039 1.80116,-1.80115 -7e-5,-0.91258 -0.45635,-1.48895 -1.36888,-1.72911 -0.14415,-0.048 -0.28825,-0.072 -0.43228,-0.072 m -5.18732,34.43805 c -6e-5,1.34486 -2.47364,2.28146 -7.42074,2.8098 l -6.98848,0.43227 -1.29684,0 c -5.8598,0 -10.32661,-0.50432 -13.40057,-1.51296 -1.48895,-0.43228 -2.23343,-1.00865 -2.23343,-1.72911 0,-1.39289 0.38425,-2.97791 1.15274,-4.75504 0.52834,-1.05668 0.79251,-1.80116 0.79251,-2.23343 0,-0.91258 -1.10471,-2.68973 -3.31413,-5.33141 -1.20076,-1.3929 -1.8972,-2.35352 -2.08933,-2.88186 0,-0.28818 -0.14409,-0.93659 -0.43228,-1.94523 l -0.9366,-3.60231 c -0.62439,-2.35351 -1.03266,-4.8511 -1.22478,-7.4928 -2.20941,-0.91258 -3.31412,-2.37752 -3.31412,-4.39481 0,-1.72911 0.7925,-2.95389 2.37752,-3.67434 0.52833,-0.24016 1.1047,-0.36025 1.72911,-0.36025 1.58501,0 2.76176,0.72047 3.53025,2.16139 0.33623,0.62439 0.50433,1.2488 0.50433,1.8732 l -0.36023,2.73775 c 0,2.16138 1.53697,4.80309 4.61095,7.92508 0.24015,-1.96926 0.36023,-4.03458 0.36023,-6.19598 0,-3.21805 -0.57637,-5.25936 -1.72911,-6.12391 -0.0961,-0.0961 -0.19213,-0.1681 -0.28818,-0.21614 -0.86456,-0.52834 -1.29683,-1.46493 -1.29683,-2.8098 0,-1.77713 0.81651,-3.00192 2.44956,-3.67435 0.52835,-0.24015 1.0807,-0.36023 1.65706,-0.36023 1.68108,0 2.88185,0.7685 3.60231,2.30547 0.28818,0.52835 0.43221,1.10471 0.43228,1.72911 l -0.50433,3.09798 c 0,2.68973 1.32079,6.79635 3.96255,12.31989 1.00858,-4.51489 1.51291,-7.9731 1.51297,-10.37464 -6e-5,-2.01729 -0.3603,-3.86647 -1.08069,-5.54754 -0.28825,-0.62441 -0.43234,-1.10472 -0.43228,-1.44093 -6e-5,-1.77714 0.79244,-3.00192 2.37751,-3.67436 0.52828,-0.24015 1.08064,-0.36023 1.65707,-0.36023 1.68102,0 2.85776,0.79251 3.53025,2.37753 0.24009,0.52834 0.36018,1.08069 0.36023,1.65706 -5e-5,0.0961 -0.40832,1.36887 -1.22478,3.81844 -0.19219,0.62439 -0.28824,1.68108 -0.28819,3.17003 -5e-5,2.40154 0.50427,5.85975 1.51297,10.37464 2.5936,-5.47551 3.89044,-9.58214 3.8905,-12.31989 l -0.43228,-3.02593 0,-0.072 c -7e-5,-1.77713 0.81647,-3.00192 2.44957,-3.67435 0.52828,-0.24015 1.08063,-0.36023 1.65706,-0.36023 1.68102,0 2.88178,0.7685 3.60231,2.30547 0.28812,0.52835 0.43221,1.10471 0.43227,1.72911 -6e-5,1.34487 -0.43234,2.30548 -1.29683,2.88184 -1.34492,0.86456 -2.01735,2.97791 -2.01729,6.34006 -6e-5,2.11336 0.12001,4.15467 0.36023,6.12393 3.0739,-3.122 4.61089,-5.7637 4.61095,-7.92508 l -0.36023,-2.73775 c -6e-5,-1.68108 0.76844,-2.88185 2.30548,-3.60231 0.52828,-0.28818 1.10465,-0.43228 1.7291,-0.43228 1.72906,0 2.95384,0.76849 3.67435,2.30548 l 0.43228,1.36888 0,0.36023 c -6e-5,1.92122 -1.10477,3.38616 -3.31412,4.39481 -0.28824,3.31412 -1.10477,7.37272 -2.44957,12.17579 -0.0961,0.38425 -0.14415,0.67243 -0.14409,0.86455 -6e-5,0.33622 -0.36029,0.88857 -1.08069,1.65707 l -0.86455,1.08069 c -2.30554,2.64169 -3.45828,4.46686 -3.45822,5.47551 -6e-5,0.28818 0.57631,1.77714 1.72911,4.46686 0.19207,0.96061 0.28812,1.80115 0.28818,2.52161 m -15.634,-41.21038 c -0.91265,0 -1.48902,0.4563 -1.72912,1.36888 -0.0481,0.14409 -0.0721,0.28818 -0.072,0.43227 -6e-5,0.91259 0.45622,1.48895 1.36886,1.72911 0.14403,0.048 0.28814,0.072 0.43229,0.072 1.15268,0 1.72904,-0.60038 1.7291,-1.80116 -6e-5,-0.86455 -0.40831,-1.44092 -1.22479,-1.7291 -0.14414,-0.048 -0.31225,-0.072 -0.50431,-0.072 m 12.9683,28.09799 c -6e-5,-1.53699 -4.32283,-2.30549 -12.9683,-2.30549 -8.69357,0 -13.04035,0.79252 -13.04035,2.37754 0,0.67242 0.62439,1.00864 1.87319,1.00864 1.44093,0 3.24208,-0.12008 5.40347,-0.36023 l 4.68299,-0.14409 1.15275,0 c 1.34479,0 3.89041,0.12007 7.63688,0.36023 l 3.53026,0.14409 c 1.15268,0 1.72905,-0.36023 1.72911,-1.08069"
       id="path1742"
       style="font-size:12px;font-style:normal;font-weight:normal;fill:#ffffff;fill-opacity:1;stroke:#000000;stroke-width:3;stroke-miterlimit:4;stroke-opacity:1;stroke-dasharray:none;font-family:Bitstream Vera Sans" />
  </g>
</svg>
