<?xml version="1.0" encoding="UTF-8" standalone="no"?>
<!-- Created with Inkscape (http://www.inkscape.org/) -->

<svg
   xmlns:dc="http://purl.org/dc/elements/1.1/"
   xmlns:cc="http://creativecommons.org/ns#"
   xmlns:rdf="http://www.w3.org/1999/02/22-rdf-syntax-ns#"
   xmlns:svg="http://www.w3.org/2000/svg"
   xmlns="http://www.w3.org/2000/svg"
   version="1.1"
   width="55"
   height="55"
   id="svg3006">
  <defs
     id="defs3008" />
  <metadata
     id="metadata3011">
    <rdf:RDF>
      <cc:Work
         rdf:about="">
        <dc:format>image/svg+xml</dc:format>
        <dc:type
           rdf:resource="http://purl.org/dc/dcmitype/StillImage" />
        <dc:title></dc:title>
      </cc:Work>
    </rdf:RDF>
  </metadata>
  <path
     d="m 24.17913,33.396238 c -2.30433,0 -3.456472,0.361453 -3.456396,1.084359 -7.6e-5,0.632537 1.016528,1.016594 3.049764,1.152132 l 3.7275,0 c 4.518123,0 6.777217,-0.384048 6.777264,-1.152132 -4.7e-5,-0.722906 -1.152189,-1.084359 -3.456396,-1.084359 l -6.641727,0 m 0,-4.201924 c -1.988056,0 -3.095009,0.225924 -3.320858,0.677726 -0.09047,0.09038 -0.135613,0.225915 -0.135547,0.406641 -7.6e-5,0.497 0.474339,0.79068 1.423207,0.881048 1.174689,0.135547 2.959368,0.20332 5.354057,0.20332 2.394594,0 4.201858,-0.06773 5.421811,-0.20332 0.903585,-0.09038 1.355406,-0.384048 1.355453,-0.881048 -4.7e-5,-0.722905 -1.152189,-1.084367 -3.456396,-1.084367 l -6.641727,0 m 12.605727,2.914226 1.355453,5.2185 c -5.7e-5,1.581377 -1.604019,2.507594 -4.811868,2.778679 2.349405,0.903642 4.540726,1.355472 6.573953,1.355472 0.271047,0 1.603905,-0.06783 3.998594,-0.203321 1.987953,0 3.614491,1.039179 4.879641,3.117547 0.18067,0.361453 0.406585,0.768085 0.677727,1.219906 l -2.439821,3.727491 c -0.722962,0.903641 -1.491057,1.491009 -2.304264,1.762094 -4.459198,-4.667123 -29.908142,-4.089453 -34.225236,-0.474406 -0.09038,0.135538 -0.158151,0.29368 -0.203321,0.474406 C 9.1110167,50.587908 8.004045,49.458361 6.9648563,47.696276 6.5582148,46.97337 6.0838185,46.273049 5.5416393,45.595323 6.761545,43.336229 8.0718185,41.980785 9.4724506,41.528955 9.9694601,41.348229 10.511639,41.25787 11.098998,41.25787 c 0,0 1.332868,0.06774 3.998594,0.203321 2.078359,0 4.269679,-0.45183 6.573953,-1.355472 -3.207906,-0.271085 -4.811858,-1.197302 -4.811858,-2.778679 0,-0.135538 0.361452,-1.28767 1.084367,-3.456406 0.225897,-0.722905 0.338859,-1.219915 0.338859,-1.491 -2.756094,-3.343443 -4.134132,-6.302858 -4.134132,-8.878217 0,-2.982009 1.468405,-5.692915 4.405217,-8.132726 2.6205,-2.213925 4.518132,-3.388642 5.692915,-3.524189 -0.994057,-1.219906 -1.491057,-2.4850093 -1.491,-3.7952735 -5.7e-5,-2.1235472 1.061717,-3.4338113 3.185321,-3.9308208 0.496943,-0.1354905 1.016537,-0.2032547 1.558773,-0.2033113 2.259029,5.66e-5 3.727434,0.835868 4.405217,2.5075849 l 0.338868,1.4232265 0,0.2033207 c -5.6e-5,1.2650944 -0.497056,2.5301795 -1.491,3.7952735 0.858396,0.225915 2.146076,0.926236 3.863047,2.100962 4.15667,2.891623 6.235038,6.076953 6.235095,9.555953 -5.7e-5,2.620538 -1.355519,5.489585 -4.066368,8.607123 m -5.692906,-9.420396 0,-2.575378 -7.183915,0 0,2.575378 M 27.500007,6.6937757 c -0.903698,0 -1.468471,0.4066321 -1.69433,1.2199151 l -0.06774,0.4066226 c -5.6e-5,0.8584623 0.451764,1.4006415 1.355453,1.6265566 0.135491,0.045189 0.271038,0.067736 0.406642,0.067736 1.129481,0 1.694254,-0.5647643 1.694311,-1.6943209 -5.7e-5,-1.0843585 -0.56483,-1.6265377 -1.694311,-1.6265377"
     id="path1731"
     style="font-size:12px;font-style:normal;font-weight:normal;fill:#ffffff;fill-opacity:1;stroke:#000000;stroke-width:2.83018875;stroke-miterlimit:4;stroke-opacity:1;stroke-dasharray:none;font-family:Bitstream Vera Sans" />
  <path
     d="m 29.364407,8.3898306 a 1.9809322,1.6313559 0 1 1 -3.961865,0 1.9809322,1.6313559 0 1 1 3.961865,0 z"
     id="path3793"
     style="fill:#ffffff;fill-opacity:1;stroke:#ffffff;stroke-width:3;stroke-linecap:round;stroke-linejoin:round;stroke-miterlimit:4;stroke-opacity:1;stroke-dasharray:none" />
</svg>
