<?xml version="1.0" ?>
<!DOCTYPE svg  PUBLIC '-//W3C//DTD SVG 1.1//EN'  'http://www.w3.org/Graphics/SVG/1.1/DTD/svg11.dtd' [
	<!ENTITY stroke_color "#000">
	<!ENTITY fill_color "#eee">
]>
<svg height="55px" viewBox="0 0 55 55" width="55px" xmlns="http://www.w3.org/2000/svg" xmlns:xlink="http://www.w3.org/1999/xlink" stroke-linecap="round" stroke-linejoin="round" stroke-width="3.5" stroke="&stroke_color;" fill="&fill_color;">
  <g
     transform="matrix(1.2165491,0,0,0.99238691,-5.9551002,0.27813261)"
     id="g3783">
    <g
       transform="translate(0,2.049694)"
       id="g2984"
       style="stroke:none">
      <path
         d="m 13.440724,50.700306 0,-3.468899 c 0,0 5.063754,-0.304895 6.717542,-1.158219 4.975737,-2.567387 4.646094,-10.853499 4.646094,-10.853499 l -7.439705,0 7.880585,-14.18671 c -2.076635,2.536817 -3.046328,3.17778 -6.378201,2.538586 -1.396898,1.237102 -2.0977,2.300181 -3.494598,3.537283 l -3.3922,-2.758489 c 0,0 8.204406,-12.235256 9.67669,-13.481023 2.148801,-1.8182 1.472289,-1.604605 3.699373,-1.809071 1.298661,-0.119228 0.02196,-2.889384 2.758991,-4.7605709 l 0.261036,46.4006119 z"
         id="path2987"
         style="fill:#ffffff;fill-opacity:1;stroke:none" />
      <path
         d="m 43.019759,50.700306 0,-3.468899 c 0,0 -5.063754,-0.304895 -6.717542,-1.158219 C 31.32648,43.505801 31.656123,35.219689 31.656123,35.219689 l 8.050058,-0.08701 -0.65988,-12.620498 C 38.657902,15.083854 33.876641,10.24922 32.550024,9.852512 29.898553,10.265591 31.437562,6.752643 28.258176,4.3867061 L 28.084152,50.700306 z"
         id="path2987-8"
         style="fill:&fill_color;;fill-opacity:1;stroke:none" />
    </g>
    <path
       d="m 28.015625,6.34375 0,0.1875 c -2.402227,1.8632619 -1.243572,4.447149 -2.5,4.5625 -2.227084,0.204466 -1.569949,-0.0057 -3.71875,1.8125 -1.472284,1.245767 -9.65625,13.5 -9.65625,13.5 l 3.375,2.75 c 1.396898,-1.237102 2.103102,-2.294148 3.5,-3.53125 3.331873,0.639194 4.298365,-0.02568 6.375,-2.5625 l -7.875,14.1875 7.4375,0 c 0,0 0.350737,8.307613 -4.625,10.875 -1.653788,0.853324 -6.71875,1.15625 -6.71875,1.15625 l 0,3.46875 14.40625,0 0.5,0 14.34375,0 0,-3.46875 c 0,0 -5.064962,-0.302926 -6.71875,-1.15625 -4.975737,-2.567387 -4.625,-10.875 -4.625,-10.875 l 8.03125,-0.0625 -0.65625,-12.625 c -0.388399,-7.428327 -5.173383,-12.259542 -6.5,-12.65625 -2.57631,0.401369 -1.284049,-2.9810068 -4.125,-5.34375 l 0,-0.21875 c -0.04451,0.030426 -0.08259,0.062864 -0.125,0.09375 -0.04073,-0.031939 -0.08265,-0.062237 -0.125,-0.09375 z"
       id="path2987-4"
       style="fill:none;stroke:&stroke_color;;stroke-width:2.5;stroke-linecap:round;stroke-linejoin:round;stroke-miterlimit:4;stroke-opacity:1;stroke-dasharray:none" />
  </g>
</svg>
