<?xml version="1.0" encoding="UTF-8" standalone="no"?>
<!-- Created with Inkscape (http://www.inkscape.org/) -->

<svg
   xmlns:dc="http://purl.org/dc/elements/1.1/"
   xmlns:cc="http://creativecommons.org/ns#"
   xmlns:rdf="http://www.w3.org/1999/02/22-rdf-syntax-ns#"
   xmlns:svg="http://www.w3.org/2000/svg"
   xmlns="http://www.w3.org/2000/svg"
   version="1.1"
   width="55"
   height="55"
   viewBox="0 0 55 55"
   id="svg2"
   xml:space="preserve"><metadata
     id="metadata13"><rdf:RDF><cc:Work
         rdf:about=""><dc:format>image/svg+xml</dc:format><dc:type
           rdf:resource="http://purl.org/dc/dcmitype/StillImage" /><dc:title></dc:title></cc:Work></rdf:RDF></metadata><defs
     id="defs11" /><path
     d="m 10.12163,48.143725 0,-6.530722 3.652776,0 c 0,0 -0.412151,-3.092591 0.221381,-4.427609 0.660791,-1.39246 3.431396,-3.099326 3.431396,-3.099326 L 17.869944,19.69634 c 0,0 -1.025198,-1.870661 -1.881733,-2.435184 -0.986318,-0.650062 -3.431397,-0.885522 -3.431397,-0.885522 l 0,-9.5193591 7.526935,0.2213806 -0.221381,3.5420865 3.763468,0.221381 0.22138,-3.6527778 7.305555,0 0.110695,3.3207068 3.874159,0.110695 0,-3.5420865 7.084174,0.1106958 0,8.6338367 -1.992424,0 c 0,0 0.263486,1.591446 -0.221381,2.103115 -0.642545,0.678065 -2.767255,0.442761 -2.767255,0.442761 l -0.110684,15.939386 c 0,0 3.553579,0.924345 4.538298,2.435184 0.832136,1.276732 0.664142,4.870369 0.664142,4.870369 l 2.545875,0.332071 0,6.087961 z"
     id="path3933-7"
     style="fill:#ff0000;fill-opacity:1;stroke:#ffffff;stroke-width:3.71254992;stroke-linecap:butt;stroke-linejoin:miter;stroke-miterlimit:4;stroke-opacity:1;stroke-dasharray:none" /><path
     d="m 10.12163,48.143725 0,-6.530722 3.652776,0 c 0,0 -0.412151,-3.092591 0.221381,-4.427609 0.660791,-1.39246 3.431396,-3.099326 3.431396,-3.099326 L 17.869944,19.69634 c 0,0 -1.025198,-1.870661 -1.881733,-2.435184 -0.986318,-0.650062 -3.431397,-0.885522 -3.431397,-0.885522 l 0,-9.5193591 7.526936,0.2213806 -0.22138,3.5420865 3.763467,0.221381 0.221381,-3.6527778 7.305553,0 0.110696,3.3207068 3.874158,0.110695 0,-3.5420865 7.084174,0.1106958 0,8.6338367 -1.992424,0 c 0,0 0.263486,1.591446 -0.221381,2.103115 -0.642545,0.678065 -2.767255,0.442761 -2.767255,0.442761 l -0.110684,15.939386 c 0,0 3.553579,0.924345 4.538298,2.435184 0.832136,1.276732 0.664142,4.870369 0.664142,4.870369 l 2.545875,0.332071 0,6.087961 z"
     id="path3933"
     style="fill:#ffffff;fill-opacity:1;stroke:#000000;stroke-width:1.23751664px;stroke-linecap:butt;stroke-linejoin:miter;stroke-opacity:1" /><g
     transform="matrix(1.2375166,0,0,1.2375166,-7.8783787,-4.2307678)"
     id="g3963"><path
       d="m 18.336315,15.644007 c 0.357782,0 19.320215,0.268336 19.320215,0.268336"
       id="path3935"
       style="fill:#ff0000;fill-opacity:1;stroke:#000000;stroke-width:1px;stroke-linecap:butt;stroke-linejoin:miter;stroke-opacity:1" /><path
       d="M 22.093023,18.953488 34.436494,18.685152"
       id="path3937"
       style="fill:#ff0000;fill-opacity:1;stroke:#000000;stroke-width:1px;stroke-linecap:butt;stroke-linejoin:miter;stroke-opacity:1" /><path
       d="M 22.093023,32.012522 34.615385,31.654741"
       id="path3939"
       style="fill:#ff0000;fill-opacity:1;stroke:#000000;stroke-width:1px;stroke-linecap:butt;stroke-linejoin:miter;stroke-opacity:1" /><path
       d="m 19.320215,35.053667 18.157424,-0.08944"
       id="path3941"
       style="fill:#ff0000;fill-opacity:1;stroke:#000000;stroke-width:1px;stroke-linecap:butt;stroke-linejoin:miter;stroke-opacity:1" /><path
       d="m 18.246869,38.094812 20.39356,-0.08944"
       id="path3943"
       style="fill:#ff0000;fill-opacity:1;stroke:#000000;stroke-width:1px;stroke-linecap:butt;stroke-linejoin:miter;stroke-opacity:1" /></g></svg>