<?xml version="1.0" encoding="UTF-8" standalone="no"?>
<!-- Created with Inkscape (http://www.inkscape.org/) -->

<svg
   xmlns:dc="http://purl.org/dc/elements/1.1/"
   xmlns:cc="http://creativecommons.org/ns#"
   xmlns:rdf="http://www.w3.org/1999/02/22-rdf-syntax-ns#"
   xmlns:svg="http://www.w3.org/2000/svg"
   xmlns="http://www.w3.org/2000/svg"
   version="1.1"
   width="55"
   height="55"
   id="svg3006">
  <defs
     id="defs3008" />
  <metadata
     id="metadata3011">
    <rdf:RDF>
      <cc:Work
         rdf:about="">
        <dc:format>image/svg+xml</dc:format>
        <dc:type
           rdf:resource="http://purl.org/dc/dcmitype/StillImage" />
        <dc:title></dc:title>
      </cc:Work>
    </rdf:RDF>
  </metadata>
  <g
     transform="translate(-586.53246,-368.27837)"
     id="layer1">
    <g
       transform="matrix(0.94339623,0,0,0.94339623,34.756552,22.402548)"
       id="layer1-8"
       style="fill:#ffffff;fill-opacity:1;stroke:#000000;stroke-width:3;stroke-linecap:square;stroke-miterlimit:4;stroke-opacity:1;stroke-dasharray:none">
      <path
         d="m 600.51334,390.66189 c 1.38657,0 2.85634,-0.80423 4.4093,-2.41265 0.83195,-0.83194 1.24793,-1.55297 1.24793,-2.16306 0,-0.72103 -0.66556,-1.08154 -1.99668,-1.08154 -1.55296,0 -2.85634,0.69329 -3.91014,2.07987 -0.55464,0.66556 -0.83194,1.35885 -0.83194,2.07988 0,0.99833 0.3605,1.4975 1.08153,1.4975 m -1.41432,-18.21963 c 0.11093,0 0.38824,-0.0277 0.83195,-0.0832 2.49585,0 5.15806,0.83196 7.98668,2.49585 0.33278,0.22186 0.49918,0.33277 0.49918,0.33277 1.60842,-2.60676 2.82861,-3.91014 3.66055,-3.91014 1.77482,0.99834 2.93956,2.07987 3.49418,3.24459 0.27732,0.55464 0.6933,1.71935 1.24792,3.49418 0.44371,-0.11094 0.88741,-0.16639 1.33112,-0.16639 4.6589,0 9.09594,2.85635 13.31115,8.56905 5.04714,6.60011 7.57071,15.58512 7.57071,26.95506 0,2.55131 -0.11092,4.85302 -0.33277,6.90517 l -35.10816,0 c 0.11094,-3.71603 1.46977,-7.23794 4.07654,-10.56573 0.27732,-0.4437 0.66556,-0.94286 1.16473,-1.4975 2.05214,-2.60676 3.30005,-4.60343 3.74376,-5.99002 0.22185,-0.72101 0.38824,-1.46977 0.49917,-2.24625 -3.66057,1.44204 -6.406,3.57737 -8.23628,6.40599 -0.83195,1.38657 -1.74708,2.82862 -2.74543,4.32612 -0.27732,0.44371 -0.69329,0.66557 -1.24791,0.66557 -1.38657,0 -2.07986,-0.85969 -2.07986,-2.57905 -0.55465,0.72103 -1.19247,1.08153 -1.91348,1.08153 0,0 -0.55464,-0.13866 -1.66389,-0.41597 -2.38492,-0.61011 -4.07654,-1.6639 -5.07489,-3.16141 -0.33277,-0.49916 -0.69328,-1.16472 -1.08153,-1.99666 0.38825,-2.38492 2.30173,-7.12701 5.74044,-14.22629 2.49584,-5.10261 4.04881,-8.76318 4.65891,-10.98169 0.0555,-0.49917 0.0832,-1.22018 0.0832,-2.16307 0,-0.77648 -0.13866,-2.27398 -0.41597,-4.4925 m -4.99168,29.20132 c -1.33111,0 -2.21852,0.58235 -2.66223,1.74709 -0.11092,0.27731 -0.16639,0.55462 -0.16639,0.83194 0,0.22185 0.0832,0.49917 0.24959,0.83194 1.44204,0 2.32945,-0.61009 2.66222,-1.83027 0.0555,-0.16639 0.0832,-0.36052 0.0832,-0.58236 0,-0.11093 -0.0555,-0.4437 -0.16639,-0.99834 m 40.84857,12.81198 0,-3.0782 c 0,-9.0405 -2.30171,-16.44481 -6.90514,-22.21297 -3.99336,-4.99169 -7.62619,-7.48753 -10.8985,-7.48753 0,0 -0.33279,-0.0555 -0.99834,-0.16638 -0.11093,0.0555 -0.19413,0.11093 -0.2496,0.16638 -0.72101,0 -1.08151,0.30505 -1.08151,0.91513 0,0.22186 0.16639,0.49918 0.49916,0.83196 2.995,0.27731 6.26733,2.41264 9.81697,6.406 4.49251,5.21351 6.73877,12.7565 6.73877,22.62892 0,0 0,0.1664 0,0.49917 0,2.44039 0.52689,3.66058 1.58069,3.66058 0.88742,0 1.38659,-0.72103 1.4975,-2.16306"
         id="path1726"
         style="font-size:12px;font-style:normal;font-weight:normal;fill:#ffffff;fill-opacity:1;stroke:#000000;stroke-width:3;stroke-linecap:square;stroke-miterlimit:4;stroke-opacity:1;stroke-dasharray:none;font-family:Bitstream Vera Sans" />
    </g>
  </g>
</svg>
