<?xml version="1.0" ?>
<!DOCTYPE svg  PUBLIC '-//W3C//DTD SVG 1.1//EN'  'http://www.w3.org/Graphics/SVG/1.1/DTD/svg11.dtd' [
	<!ENTITY stroke_color "#000">
	<!ENTITY fill_color "#eee">
]>
<svg height="55px" viewBox="0 0 55 55" width="55px" xmlns="http://www.w3.org/2000/svg" xmlns:xlink="http://www.w3.org/1999/xlink" stroke-linecap="round" stroke-linejoin="round" stroke-width="3.5" stroke="&stroke_color;" fill="&fill_color;">
  <g
     transform="matrix(1.0659554,0,0,1.0659554,-0.07807281,-7.1157311)"
     id="g3017">
    <g
       transform="translate(4.9556586,15.454935)"
       id="g3008">
      <path
         d="M 4.2635506,17.294729 C 2.96464,15.433152 2.4760527,12.826305 2.9654996,10.609761 3.4031211,8.6279198 4.8508545,6.8095891 6.5351425,5.6771639 8.1245095,4.6085556 10.203446,4.2291738 12.116765,4.3142098 c 2.077759,0.092345 5.906132,2.0119801 5.906132,2.0119801 0,0 -1.719262,0.9158438 -2.661005,1.1033439 -1.421589,0.2830368 -2.985559,-0.4934433 -4.348474,0 -1.4298836,0.5176904 -2.8998541,1.5253764 -3.5047401,2.9206162 -0.5947553,1.37189 -0.7313097,3.358504 0.2596124,4.478278 0.3205861,0.362275 0.9486637,0.325888 1.4278572,0.259612 1.0734355,-0.148466 2.0717145,-0.754301 2.9206175,-1.427857 1.421366,-1.127784 1.823717,-3.393843 3.439837,-4.2186686 1.35107,-0.6895525 3.082624,-0.669078 4.543178,-0.2596107 0.733833,0.2057308 1.154514,1.0714633 1.882179,1.2980523 0.0413,0.01286 0.08814,0.01167 0.129806,0 1.243334,-0.348234 2.019202,-1.981757 3.31003,-2.0119809 1.626011,-0.038072 3.039216,1.2891471 4.283572,2.3364929 1.331256,1.120489 1.577299,3.592807 3.245133,4.088863 0.524594,0.156028 1.209203,-0.09718 1.557658,-0.51922 0.736361,-0.891865 0.743678,-2.320051 0.454316,-3.439838 C 34.625796,9.6313962 33.744971,8.3288599 32.561081,7.689144 30.559327,6.6074981 25.746305,7.2997287 25.746305,7.2997287 c 0,0 2.802952,-2.7000658 4.608087,-2.9206163 2.105159,-0.2572067 4.417241,0.6417035 6.035939,2.0119801 1.233561,1.0442462 1.846468,2.7242788 2.271592,4.2835705 0.381654,1.399849 0.552586,2.942357 0.194709,4.348474 -0.330365,1.298017 -1.092876,2.531143 -2.076882,3.439836 -0.959571,0.886128 -2.199266,1.79399 -3.50474,1.752373 -2.277124,-0.07261 -4.277544,-1.846657 -5.906138,-3.439842 -0.888527,-0.869204 -1.107271,-2.263861 -1.947077,-3.180224 -0.83611,-0.912333 -1.761068,-2.385981 -2.98552,-2.206689 -0.535149,0.07836 -0.576414,0.93088 -0.973541,1.298051 -0.771202,0.71303 -1.827887,1.047877 -2.661005,1.687469 -0.886546,0.680607 -1.555185,1.624236 -2.466296,2.271592 -2.15003,1.527612 -4.340493,3.801772 -6.9770277,3.731895 -1.9842947,-0.05258 -3.9590002,-1.454983 -5.0948547,-3.082869 z"
         id="path4047"
         style="fill:&stroke_color;;fill-opacity:1;stroke:&stroke_color;;stroke-width:0.55816221px;stroke-linecap:butt;stroke-linejoin:miter;stroke-opacity:1" />
      <g
         transform="matrix(0.55816224,0,0,0.55816224,-34.457331,-20.958857)"
         id="g4061">
        <path
           d="m 98.72093,62.55814 c 0,0 -6.409977,0.07269 -9.534883,0.697674 -1.923019,0.384604 -4.012514,0.683803 -5.581396,1.860465 -1.470827,1.10312 -2.337677,2.880426 -3.139535,4.534884 -0.86627,1.787359 -1.048872,3.837133 -1.744186,5.697674 -0.668173,1.787919 -1.232931,3.667558 -2.325581,5.232558 -1.019941,1.460859 -4.64208,2.131411 -3.837209,3.720931 1.260813,2.489949 7.790697,-1.27907 8.255813,-1.395349 0.465117,-0.116279 5.221602,-0.944347 6.860466,-2.790698 C 89.62193,77.922206 92.73991,72.676549 90,71.627907 c -2.994908,-1.146237 -3.506839,5.49812 -4.302326,8.604651 -0.509955,1.991471 -0.794185,4.185272 -0.232558,6.162791 0.931008,3.278126 3.505162,5.879585 5.697675,8.488372 1.657921,1.972695 3.692258,3.596301 5.581395,5.348839 1.871315,1.736 3.156248,4.87819 5.697674,5.11628 1.48912,0.13951 2.62896,-1.44406 3.83721,-2.32558 0.95437,-0.69629 2.17086,-1.25691 2.67442,-2.32559 0.64454,-1.367875 1.08036,-3.369947 0.11628,-4.534879 -1.52755,-1.845792 -7.24033,1.22858 -7.09303,-1.162791 0.18124,-2.942454 6.30398,1.159024 8.83721,-0.348837 1.43371,-0.853389 3.40049,-2.862107 2.55814,-4.302326 -1.62465,-2.77776 -6.44424,0.499178 -9.65116,0.232558 -1.02269,-0.08503 -2.15536,-0.03378 -3.02326,-0.581395 -1.547268,-0.976276 -1.753161,-5.462251 -3.25581,-4.418605 -1.977853,1.373692 1.801002,4.966823 3.95349,6.046512 3.92245,1.9675 10.282,2.51639 13.13953,-0.813954 0.55756,-0.649814 0.25852,-1.856728 -0.23255,-2.558139 -0.41766,-0.596556 -1.91952,-0.204255 -1.97675,-0.930233 -0.0921,-1.168177 2.17894,-1.05855 2.90698,-1.976744 1.00624,-1.269063 2.32983,-3.024899 1.74418,-4.534884 -0.53278,-1.373675 -2.67411,-1.245963 -3.95348,-1.976744 -0.68149,-0.389266 -1.4208,-0.725113 -1.97675,-1.279069 -0.75393,-0.751222 -2.50397,-1.929131 -1.74418,-2.674419 1.67307,-1.641125 3.58284,3.23613 5.81395,3.953488 1.47643,0.47471 4.18605,0.116279 4.65116,0.116279 0.46512,0 2.05715,0.268748 2.44186,-0.465116 1.37772,-2.628108 -1.96287,-5.667768 -3.60465,-8.139535 -1.53224,-2.30685 -3.32989,-4.610215 -5.69767,-6.046511 -1.58411,-0.960925 -3.89609,-0.361714 -5.34884,-1.511628 -1.25159,-0.990683 -0.98794,-3.315049 -2.32558,-4.186047 -1.07629,-0.700818 -2.66802,-0.880383 -3.83721,-0.348837 -1.26336,0.57436 -1.487283,2.364747 -2.441862,3.372093 -0.720326,0.760144 -1.741188,2.755042 -2.44186,1.976744 -0.183374,-0.20369 0.581395,-0.581395 0.581395,-0.581395"
           id="path4049"
           style="fill:&fill_color;;fill-opacity:1;stroke:&stroke_color;;stroke-width:1px;stroke-linecap:butt;stroke-linejoin:miter;stroke-opacity:1" />
        <path
           d="m 108.72093,81.511628 c 0,0 -2.8332,-2.729956 -4.65116,-3.255814 -0.78279,-0.226426 -1.71857,-0.25905 -2.44186,0.116279 -1.56904,0.814204 -3.804705,2.505709 -3.255817,4.186047 0.08762,0.268227 0.813954,0.232558 0.813954,0.232558"
           id="path4053"
           style="fill:none;stroke:&stroke_color;;stroke-width:1px;stroke-linecap:round;stroke-linejoin:miter;stroke-opacity:1" />
        <path
           d="m 102.67442,82.55814 c 0,0 1.16279,-0.581396 1.62791,-0.465117 0.46511,0.116279 2.09302,2.209303 2.09302,2.209303"
           id="path4055"
           style="fill:none;stroke:&stroke_color;;stroke-width:1px;stroke-linecap:round;stroke-linejoin:miter;stroke-opacity:1" />
        <path
           d="m 93.953488,72.44186 c 0,0 0.349423,-1.712316 1.046512,-1.976744 0.619269,-0.234908 1.368226,0.254531 1.860465,0.697675 0.257649,0.231952 0.465116,0.930232 0.465116,0.930232"
           id="path4057"
           style="fill:none;stroke:&stroke_color;;stroke-width:1px;stroke-linecap:round;stroke-linejoin:miter;stroke-opacity:1" />
        <path
           d="m 108.02326,71.395349 c 0,0 3.19095,-1.47623 3.72093,-0.348837 0.0466,0.09921 -0.23256,0.232558 -0.23256,0.232558"
           id="path4059"
           style="fill:none;stroke:&stroke_color;;stroke-width:1px;stroke-linecap:round;stroke-linejoin:miter;stroke-opacity:1" />
      </g>
    </g>
    <g
       transform="matrix(0.38910386,0,0,0.38910386,15.381441,8.3425571)"
       id="g3894">
      <path
         d="m 28.095345,45.066191 c -4.184916,-0.03525 -10.538103,-0.259379 -12.539789,-0.621747 -1.168379,-0.211513 -1.336235,-2.078019 -1.203329,-3.214339 0.135091,-1.155011 1.671056,-1.76639 1.944069,-2.896772 0.248065,-1.027088 0.02185,-2.167022 -0.37037,-3.148148 -0.687414,-1.71954 -2.582717,-2.751538 -3.333333,-4.444444 C 11.01253,27.177139 12.796824,22.310189 10.37037,19.259259 9.9919447,18.783441 9.0451091,19.02156 8.7037037,18.518519 7.8363985,17.240595 7.4862926,15.037722 8.5185185,13.888889 c 1.1459651,-1.275421 4.0491455,-1.672704 5.1323825,-0.343594 1.517007,1.861336 -0.05358,2.473091 -0.132382,4.047298 -0.146606,2.928752 4.035962,7.863778 4.444444,8.333333 0,0 2.627749,-6.395543 1.666667,-9.444445 -0.288695,-0.915844 -1.770775,-1.114421 -2.037037,-2.037037 -0.386154,-1.338049 -0.218826,-3.280958 0.925926,-4.074074 1.126617,-0.7805509 3.079186,-0.3871646 4.074074,0.555556 0.782004,0.740999 0.855205,2.125521 0.608358,3.174175 -0.193193,0.820723 -1.403555,1.178052 -1.534284,2.01101 C 21.179306,19.216402 24.814815,25 24.814815,25 c 0,0 3.048258,-6.622277 2.129254,-9.854979 -0.182421,-0.641687 -1.13898,-0.82263 -1.388513,-1.441317 -0.438699,-1.087702 -0.726962,-2.59815 0,-3.518519 0.825944,-1.045686 2.673699,-1.4726965 3.888888,-0.9259257 1.099015,0.4944988 1.774132,1.9843457 1.706082,3.1875637 -0.06264,1.10756 -1.687578,1.647892 -1.891267,2.738362 -0.636056,3.405185 2.420795,10.106356 2.420795,10.106356 0,0 3.457005,-6.083996 2.896023,-9.273398 -0.100785,-0.573001 -0.852001,-0.844238 -1.057558,-1.388513 -0.306111,-0.810521 -0.583761,-1.823316 -0.185186,-2.592593 0.580521,-1.120445 1.985333,-2.0889623 3.240366,-1.957458 1.219315,0.127762 2.648078,1.287597 2.68556,2.513014 0.08913,2.913851 -1.759682,2.322295 -2.037037,3.703703 -0.636396,3.169671 1.031533,9.643767 1.031533,9.643767 0,0 4.229323,-4.663444 4.709208,-7.60673 0.173477,-1.063991 -1.069411,-2.121432 -0.740741,-3.148148 0.379136,-1.184364 1.561623,-2.420411 2.804555,-2.46021 1.545959,-0.0495 3.245047,1.345346 3.676927,2.830581 0.201738,0.693777 -0.271097,1.487985 -0.740741,2.037037 -0.628567,0.734846 -1.979434,0.613805 -2.539789,1.401902 -1.936431,2.72344 -0.601603,6.722719 -1.693444,9.881006 -0.895992,2.591769 -3.24184,4.57722 -3.914915,7.23561 -0.18181,0.718082 -0.148639,1.496548 0,2.222222 0.326183,1.592463 2.582254,3.000565 1.917294,4.48386 -0.85599,1.909417 -3.328946,1.54398 -5.951204,1.997622 -1.26662,0.219121 -5.122428,0.272965 -7.68556,0.251376 z"
         id="path3104"
         style="fill:&fill_color;;fill-opacity:1;stroke:&stroke_color;;stroke-width:2.5;stroke-linecap:butt;stroke-linejoin:miter;stroke-miterlimit:4;stroke-opacity:1;stroke-dasharray:none" />
      <path
         d="m 18.533503,34.679337 c 0,0 6.392066,-1.690008 9.663899,-1.720968 3.239088,-0.03065 9.597707,1.522395 9.597707,1.522395 l 0.264764,-0.06619"
         id="path3106"
         style="fill:none;stroke:&stroke_color;;stroke-width:2.5;stroke-linecap:round;stroke-linejoin:miter;stroke-miterlimit:4;stroke-opacity:1;stroke-dasharray:none" />
      <path
         d="m 18.566599,38.386262 c 0,0 6.392066,-1.690008 9.663899,-1.720968 3.239088,-0.03065 9.597707,1.522395 9.597707,1.522395 l 0.264764,-0.06619"
         id="path3106-5"
         style="fill:none;stroke:&stroke_color;;stroke-width:2.5;stroke-linecap:round;stroke-linejoin:miter;stroke-miterlimit:4;stroke-opacity:1;stroke-dasharray:none" />
    </g>
  </g>
</svg>
