<?xml version="1.0" ?>
<!DOCTYPE svg  PUBLIC '-//W3C//DTD SVG 1.1//EN'  'http://www.w3.org/Graphics/SVG/1.1/DTD/svg11.dtd' [
	<!ENTITY stroke_color "#000">
	<!ENTITY fill_color "#eee">
]>
<svg height="55px" viewBox="0 0 55 55" width="55px" xmlns="http://www.w3.org/2000/svg" xmlns:xlink="http://www.w3.org/1999/xlink" stroke-linecap="round" stroke-linejoin="round" stroke-width="3.5" stroke="&stroke_color;" fill="&fill_color;">
    <path
       d="m 12.203771,29.672482 -3.446413,7.451705 7.544851,-2.421804 2.235512,5.961364 3.166974,7.07912 4.750462,4.936754 1.76978,-1.117755 0.838317,0.931463 0.931463,-1.117756 1.02461,1.117756 1.397194,-1.304049 1.210902,1.490341 5.775072,-6.79968 0.652024,-3.260121 0.279439,-3.073829 1.117756,-3.818998 -0.652025,-2.049219 -1.397194,0.09315 -1.304049,-0.652024 -0.186292,-3.632706 2.142365,2.235511 4.098438,1.02461 1.956072,-1.490341 -2.608097,-2.701243 0,-1.210903 -1.769779,-4.005291 -3.818999,-3.073828 -6.240803,-0.745171 -5.588779,0 -6.240803,0.652024 -6.333949,4.56417 -2.142365,4.471023 0.465731,1.024609"
       id="path4055"
       style="fill:&fill_color;;fill-opacity:1;stroke:none" />
    <path
       d="m 15.097837,24.382046 c 3.007681,-2.394436 4.734513,-3.473608 6.561352,-3.726192 1.40355,-0.199295 2.170056,0.705338 3.322299,0.657486 1.056759,0.288207 2.978775,-1.056845 3.986559,-0.960872 0.959787,-0.09597 2.834527,0.816635 3.747048,0.864803 2.400199,-1.055596 5.667892,-0.384094 7.205179,1.825312 1.729243,2.01745 3.266347,5.091659 3.266347,5.091659 0,0 6.724833,0.960691 8.742283,-6.628764 0.768553,-4.611313 0.09607,-7.109109 -0.96069,-9.414765 -1.05676,-2.017454 -3.650624,-3.9388337 -6.340558,-3.6506257 -2.689932,0.288207 -4.515244,1.8253117 -5.764141,1.9213797 -1.248898,0.09607 -2.305658,-0.192134 -2.305658,-0.192134 0,0 0.09607,1.344964 1.344967,1.729242 1.248898,0.384275 5.475935,0.192138 6.532694,1.056759 1.05676,0.864621 2.593865,4.0349 2.209589,6.628764 -0.384277,2.593863 -2.117785,3.017076 -2.593865,3.074209 -1.925646,0.231074 -3.925073,-2.2699 -5.283797,-4.227039 -1.475899,-2.12593 -2.742934,-3.467342 -5.187728,-3.554553 -1.92362,-0.0669 -4.035131,1.882636 -4.752555,1.881714 -1.392175,0.142076 -3.67494,-2.311076 -5.622904,-2.169922 -4.680801,0.339191 -8.310107,8.574767 -12.121666,8.64048 -1.760446,0.03036 -2.480829,-2.203853 -2.576898,-3.54882 -0.09607,-1.344967 1.441036,-7.589454 5.475936,-7.685525 4.0349,-0.09607 5.956281,0.288208 7.301247,-0.09607 1.344967,-0.384278 1.875989,-1.305074 2.113519,-1.729242 -0.407207,0.169672 -1.062946,0.48011 -2.475324,0.152472 C 19.384428,9.9377563 17.043917,7.5417633 12.348456,8.3440203 6.87252,9.4007773 2.645482,15.837404 2.741551,18.815546 c 0.09607,2.978139 0.960691,8.261937 4.611315,10.183318 3.650623,1.921382 4.803452,1.344968 4.803452,1.344968 0,0 0.736667,-4.1713 2.941519,-5.961786 z"
       id="path630"
       style="fill:&stroke_color;;fill-opacity:1;fill-rule:nonzero;stroke:none" />
    <g
       transform="translate(74.947992,4.4563213)"
       id="g3147"
       style="fill:none;stroke:&stroke_color;;stroke-linecap:round;stroke-linejoin:round;stroke-opacity:1">
      <path
         d="m -44.806415,45.296094 c -0.07454,1.130262 -0.748109,2.340424 -1.529227,2.955036 -0.142076,-0.822025 -0.585262,-1.413041 -0.924607,-1.616641 -0.250846,0.553723 -0.408428,0.943706 -1.019235,1.650571 0,0.09607 -4.447737,-2.714219 -5.264055,-5.530676 -0.938124,-3.438907 -1.851895,-3.608804 -3.339927,-7.736286"
         id="path629"
         style="fill:none;stroke:&stroke_color;;stroke-width:1;stroke-linecap:round;stroke-linejoin:round;stroke-miterlimit:4;stroke-opacity:1;stroke-dasharray:none;stroke-dashoffset:0" />
      <path
         d="m -62.802674,25.704664 c 0,0 -0.927249,3.028635 -1.622173,4.272902 -0.629906,1.110875 -1.265173,2.248563 -2.209589,2.978141 0.820142,-0.11877 7.758661,-2.158451 10.08725,-4.323107 1.921381,-1.825313 2.401726,-8.358008 3.362417,-9.222629 0.96069,-0.864621 2.593864,-1.056759 2.593864,-1.056759"
         id="path631"
         style="fill:none;stroke:&stroke_color;;stroke-width:1;stroke-linecap:round;stroke-linejoin:round;stroke-miterlimit:4;stroke-opacity:1;stroke-dasharray:none;stroke-dashoffset:0" />
      <path
         d="m -31.780941,23.401274 c 0.221046,0.540514 1.039295,3.851658 3.093779,3.213875 -0.730758,1.472056 -1.280158,1.672466 -3.554554,1.609157 -2.250043,-0.0635 -4.233764,-1.682169 -4.899522,-2.906089 -0.141769,0.578979 0.192138,1.873346 0.09607,2.257623 -0.03358,0.353024 -0.06715,0.467769 -0.06715,1.061428"
         id="path632"
         style="fill:none;stroke:&stroke_color;;stroke-width:1;stroke-linecap:round;stroke-linejoin:round;stroke-miterlimit:4;stroke-opacity:1;stroke-dasharray:none;stroke-dashoffset:0" />
      <path
         d="m -39.883222,31.096464 c -0.373276,-1.730636 -2.417078,-3.08521 -4.271057,-2.944209 -2.97814,0.480345 -2.113519,3.266348 -1.825312,3.650624"
         id="path634"
         style="fill:none;stroke:&stroke_color;;stroke-width:1;stroke-linecap:round;stroke-linejoin:round;stroke-miterlimit:4;stroke-opacity:1;stroke-dasharray:none;stroke-dashoffset:0" />
      <path
         d="m -44.305338,30.077871 c 0.509426,-0.355407 1.513616,-0.19696 2.105152,0.59316 0.461266,0.600988 0.958116,1.703496 0.690083,1.922034 -0.234139,0.218182 -0.655777,-0.360787 -1.202746,-0.596599 -0.72781,-0.332773 -1.057336,-0.09431 -1.592489,-0.697374 -0.35461,-0.377773 -0.324108,-0.995093 0,-1.221221 z"
         id="path635"
         style="font-size:12px;fill:none;stroke:&stroke_color;;stroke-width:1;stroke-linecap:round;stroke-linejoin:round;stroke-miterlimit:4;stroke-opacity:1;stroke-dasharray:none;stroke-dashoffset:0" />
      <path
         d="m -39.735102,18.353211 c -0.600432,0.312224 -1.248898,1.417018 -1.344967,3.338399 0.432311,1.489071 2.593864,3.86678 3.410451,5.932264 0.09607,1.05676 1.393001,1.729464 1.777278,1.729464 0.384276,0 0.985553,-0.678276 1.728791,-0.158639 1.040332,0.76127 0.484294,2.770382 0.240941,3.376732 -0.32845,0.866332 -0.787238,1.102229 -0.834532,2.218177 -0.03389,0.833649 0.259386,1.003431 0.113697,1.912792 -0.199295,1.291918 -1.441036,1.825312 -2.01745,1.825312 -0.576414,0 -2.903466,-0.413587 -4.082531,-0.432714 -1.900294,-0.02927 -6.85225,1.773031 -8.933615,-2.739447"
         id="path636"
         style="fill:none;stroke:&stroke_color;;stroke-width:1;stroke-linecap:round;stroke-linejoin:round;stroke-miterlimit:4;stroke-opacity:1;stroke-dasharray:none;stroke-dashoffset:0" />
      <path
         d="m -35.260456,37.958686 c 0.296921,0.500518 0.17327,2.060431 -0.372949,3.156531 -0.736629,1.094793 -2.284148,2.960396 -2.937888,3.573298 -0.641674,0.649244 -1.462613,2.612329 -3.20813,3.629652 -0.162818,-1.285972 -0.684357,-1.001877 -0.868618,-2.353826 -0.213436,1.448692 -1.061563,2.058942 -1.718041,2.60569 0.07104,-1.487706 -0.614266,-1.349732 -0.667863,-2.231367"
         id="path637"
         style="fill:none;stroke:&stroke_color;;stroke-width:1;stroke-linecap:round;stroke-linejoin:round;stroke-miterlimit:4;stroke-opacity:1;stroke-dasharray:none;stroke-dashoffset:0" />
      <path
         d="m -46.363867,18.353211 c 0.407909,0.335924 1.584736,2.304398 1.753059,3.504955"
         id="path638"
         style="fill:none;stroke:&stroke_color;;stroke-width:1;stroke-linecap:round;stroke-linejoin:round;stroke-miterlimit:4;stroke-opacity:1;stroke-dasharray:none;stroke-dashoffset:0" />
      <path
         d="m -39.158688,17.296451 c 0,0 1.152828,1.05676 1.248898,1.441036 0.09607,0.384276 0.288207,2.497795 -0.192139,2.593864"
         id="path639"
         style="fill:none;stroke:&stroke_color;;stroke-width:1;stroke-linecap:round;stroke-linejoin:round;stroke-miterlimit:4;stroke-opacity:1;stroke-dasharray:none;stroke-dashoffset:0" />
      <path
         d="m -37.861756,24.597699 c 0.281204,0.40618 0.773442,2.202354 0.773442,2.202354"
         id="path640"
         style="fill:none;stroke:&stroke_color;;stroke-width:1;stroke-linecap:round;stroke-linejoin:round;stroke-miterlimit:4;stroke-opacity:1;stroke-dasharray:none;stroke-dashoffset:0" />
      <path
         d="m -37.861756,22.003835 c 0,0 0,-0.720517 0,-0.720517"
         id="path641"
         style="fill:none;stroke:&stroke_color;;stroke-width:1;stroke-linecap:round;stroke-linejoin:round;stroke-miterlimit:4;stroke-opacity:1;stroke-dasharray:none;stroke-dashoffset:0" />
      <path
         d="m -40.647758,22.171955 c 0,0 1.296932,-0.528379 1.657191,-0.480345 0.360259,0.04804 1.609156,0.79257 1.609156,0.79257 0,0 -0.144103,0.696502 -0.26419,0.624449 -0.120086,-0.07205 -0.528379,-0.696501 -1.032742,-0.768553 -0.504362,-0.07205 -1.969415,-0.168121 -1.969415,-0.168121 z"
         id="path642"
         style="fill:none;stroke:&stroke_color;;stroke-width:1;stroke-linecap:round;stroke-linejoin:round;stroke-miterlimit:4;stroke-opacity:1;stroke-dasharray:none;stroke-dashoffset:0" />
      <path
         d="m -39.120664,22.30454 c -0.469557,-0.01735 -0.981096,0.270079 -0.951967,0.85513 0.02376,0.460642 0.311283,0.614093 0.765449,0.650282 0.52275,0.04004 0.838327,-0.284268 0.822524,-0.725696 -0.01226,-0.362805 -0.228683,-0.765305 -0.636006,-0.779716 z"
         id="path643"
         style="font-size:12px;fill:none;stroke:&stroke_color;;stroke-width:1;stroke-linecap:round;stroke-linejoin:round;stroke-miterlimit:4;stroke-opacity:1;stroke-dasharray:none;stroke-dashoffset:0" />
      <path
         d="m -46.33985,22.628283 c 0,0 -0.02438,-0.408783 -0.504362,-0.936673 -0.384007,-0.04799 -1.993481,0.168054 -2.569895,0.408226 -0.576415,0.240173 -0.86516,0.792522 -1.465005,1.441103 0.816587,-0.504362 1.553696,-0.874593 2.281323,-1.008657 0.936481,-0.168121 2.257939,0.096 2.257939,0.096 z"
         id="path644"
         style="fill:none;stroke:&stroke_color;;stroke-width:1;stroke-linecap:round;stroke-linejoin:round;stroke-miterlimit:4;stroke-opacity:1;stroke-dasharray:none;stroke-dashoffset:0" />
      <path
         d="m -50.326984,23.588955 c 0.52789,0.455896 1.034731,0.816809 2.4268,0.672734 1.368062,-0.408025 1.392214,-0.960921 1.392214,-0.960921"
         id="path645"
         style="fill:none;stroke:&stroke_color;;stroke-width:1;stroke-linecap:round;stroke-linejoin:round;stroke-miterlimit:4;stroke-opacity:1;stroke-dasharray:none;stroke-dashoffset:0" />
      <path
         d="m -48.138858,22.357234 c -0.565923,0.08826 -0.915067,0.546393 -0.813157,1.003221 0.08248,0.388215 0.39836,0.730759 0.896651,0.711152 0.591189,-0.04614 0.915288,-0.457433 0.843246,-0.955408 -0.08351,-0.438189 -0.508359,-0.821687 -0.92674,-0.758965 z"
         id="path646"
         style="fill:none;stroke:&stroke_color;;stroke-width:1;stroke-linecap:round;stroke-linejoin:round;stroke-miterlimit:4;stroke-opacity:1;stroke-dasharray:none;stroke-dashoffset:0" />
      <path
         d="m -50.566891,21.882983 c 0.33604,-1.127803 1.105309,-1.560424 1.777639,-1.656426 1.46512,-8.6e-5 1.945088,0.744718 2.065126,1.008725"
         id="path647"
         style="fill:none;stroke:&stroke_color;;stroke-width:1;stroke-linecap:round;stroke-linejoin:round;stroke-miterlimit:4;stroke-opacity:1;stroke-dasharray:none;stroke-dashoffset:0" />
      <path
         d="m -41.007902,20.923346 c 0.623863,-0.383911 0.360326,-0.360547 1.200565,-0.50465 1.032214,-0.19209 1.584823,0.480259 1.584823,0.480259"
         id="path648"
         style="fill:none;stroke:&stroke_color;;stroke-width:1;stroke-linecap:round;stroke-linejoin:round;stroke-miterlimit:4;stroke-opacity:1;stroke-dasharray:none;stroke-dashoffset:0" />
      <path
         d="m -39.841874,23.882888 c 0.30794,0.03601 0.687845,0.143988 1.115756,0.107991 0.451909,-0.02 0.615879,-0.159965 0.947798,-0.347924"
         id="path652"
         style="fill:none;stroke:&stroke_color;;stroke-width:1;stroke-linecap:round;stroke-linejoin:round;stroke-miterlimit:4;stroke-opacity:1;stroke-dasharray:none;stroke-dashoffset:0" />
      <path
         d="m -35.996383,41.625123 c -0.709211,0.472169 -2.018786,0.618741 -2.980811,0.671522 -0.929411,0.05098 -3.994869,0.267447 -5.470979,-0.139761 1.543983,0.407208 0.418505,-0.03323 1.920487,0.283759 0.483967,0.622403 3.58596,0.879234 5.104284,0.783482 0.374765,-0.388465 1.034077,-1.123989 1.427019,-1.599002 z"
         id="path656"
         style="fill:none;stroke:&stroke_color;;stroke-width:1;stroke-linecap:round;stroke-linejoin:round;stroke-miterlimit:4;stroke-opacity:1;stroke-dasharray:none;stroke-dashoffset:0" />
      <path
         d="m -48.072108,23.15507 a 0.287939,0.30393691 0 1 1 -0.575878,0 0.287939,0.30393691 0 1 1 0.575878,0 z"
         id="path657"
         style="fill:none;stroke:&stroke_color;;stroke-width:1;stroke-linecap:round;stroke-linejoin:round;stroke-miterlimit:4;stroke-opacity:1;stroke-dasharray:none" />
      <path
         d="m -39.24199,22.949106 a 0.251946,0.26594483 0 0 1 -0.503892,0 0.251946,0.26594483 0 1 1 0.503892,0 z"
         id="path658"
         style="fill:none;stroke:&stroke_color;;stroke-width:1;stroke-linecap:round;stroke-linejoin:round;stroke-miterlimit:4;stroke-opacity:1;stroke-dasharray:none" />
      <path
         d="m -47.254331,46.609598 c 0.135736,-0.339335 0.11877,-0.814425 0.06787,-1.255555"
         id="path736"
         style="fill:none;stroke:&stroke_color;;stroke-width:1;stroke-linecap:round;stroke-linejoin:round;stroke-miterlimit:4;stroke-opacity:1;stroke-dasharray:none;stroke-dashoffset:0" />
      <path
         d="m -42.650462,45.976002 c 0,-0.339343 -0.0495,-0.564722 -0.08926,-0.846839"
         id="path737"
         style="fill:none;stroke:&stroke_color;;stroke-width:1;stroke-linecap:round;stroke-linejoin:round;stroke-miterlimit:4;stroke-opacity:1;stroke-dasharray:none;stroke-dashoffset:0" />
    </g>
    <g
       transform="matrix(0.49019608,0,0,0.33421771,-272.14153,-123.02495)"
       id="layer1-5"
       style="stroke:none">
      <path
         d="m 602.14475,411.48443 c 0,0.76849 0.55235,1.15274 1.65706,1.15274 l 4.97118,-0.36023 c -6e-5,0 1.44087,-0.0721 4.32278,-0.21614 l 1.08069,0 8.42939,0.43228 1.72911,0.14409 c 1.10463,0 1.657,-0.38425 1.65706,-1.15274 -6e-5,-1.39289 -3.21813,-2.16138 -9.65419,-2.30547 l -2.23342,0 c -5.42754,0 -9.0538,0.40826 -10.87897,1.22476 -0.72046,0.28819 -1.08069,0.64844 -1.08069,1.0807 m -9.00576,-30.11528 c -0.9126,0 -1.48895,0.4563 -1.72911,1.36888 -0.048,0.14409 -0.072,0.28818 -0.072,0.43228 0,0.91259 0.4563,1.48896 1.36888,1.7291 0.14409,0.048 0.28818,0.072 0.43228,0.072 1.15273,0 1.7291,-0.60039 1.7291,-1.80115 0,-1.20076 -0.57637,-1.80115 -1.7291,-1.80115 m 9.43803,-4.53891 c -1.24879,0 -1.87319,0.60038 -1.87319,1.80115 0,1.20079 0.6244,1.80116 1.87319,1.80116 1.15274,0 1.72911,-0.60037 1.72911,-1.80116 0,-1.20076 -0.57637,-1.80115 -1.72911,-1.80115 m 22.98272,0 c -0.81659,0 -1.36894,0.40826 -1.65706,1.22479 l -0.072,0.57636 c -6e-5,1.20079 0.57631,1.80116 1.72911,1.80116 1.2007,0 1.80109,-0.60037 1.80115,-1.80116 -6e-5,-1.20076 -0.60045,-1.80115 -1.80115,-1.80115 m 9.36599,4.53891 c -1.1528,0 -1.72916,0.60039 -1.7291,1.80115 -6e-5,1.20076 0.5763,1.80115 1.7291,1.80115 1.20071,0 1.80109,-0.60039 1.80116,-1.80115 -7e-5,-0.91258 -0.45635,-1.48895 -1.36888,-1.72911 -0.14415,-0.048 -0.28825,-0.072 -0.43228,-0.072 m -5.18732,34.43805 c -6e-5,1.34486 -2.47364,2.28146 -7.42074,2.8098 l -6.98848,0.43227 -1.29684,0 c -5.8598,0 -10.32661,-0.50432 -13.40057,-1.51296 -1.48895,-0.43228 -2.23343,-1.00865 -2.23343,-1.72911 0,-1.39289 0.38425,-2.97791 1.15274,-4.75504 0.52834,-1.05668 0.79251,-1.80116 0.79251,-2.23343 0,-0.91258 -1.10471,-2.68973 -3.31413,-5.33141 -1.20076,-1.3929 -1.8972,-2.35352 -2.08933,-2.88186 0,-0.28818 -0.14409,-0.93659 -0.43228,-1.94523 l -0.9366,-3.60231 c -0.62439,-2.35351 -1.03266,-4.8511 -1.22478,-7.4928 -2.20941,-0.91258 -3.31412,-2.37752 -3.31412,-4.39481 0,-1.72911 0.7925,-2.95389 2.37752,-3.67434 0.52833,-0.24016 1.1047,-0.36025 1.72911,-0.36025 1.58501,0 2.76176,0.72047 3.53025,2.16139 0.33623,0.62439 0.50433,1.2488 0.50433,1.8732 l -0.36023,2.73775 c 0,2.16138 1.53697,4.80309 4.61095,7.92508 0.24015,-1.96926 0.36023,-4.03458 0.36023,-6.19598 0,-3.21805 -0.57637,-5.25936 -1.72911,-6.12391 -0.0961,-0.0961 -0.19213,-0.1681 -0.28818,-0.21614 -0.86456,-0.52834 -1.29683,-1.46493 -1.29683,-2.8098 0,-1.77713 0.81651,-3.00192 2.44956,-3.67435 0.52835,-0.24015 1.0807,-0.36023 1.65706,-0.36023 1.68108,0 2.88185,0.7685 3.60231,2.30547 0.28818,0.52835 0.43221,1.10471 0.43228,1.72911 l -0.50433,3.09798 c 0,2.68973 1.32079,6.79635 3.96255,12.31989 1.00858,-4.51489 1.51291,-7.9731 1.51297,-10.37464 -6e-5,-2.01729 -0.3603,-3.86647 -1.08069,-5.54754 -0.28825,-0.62441 -0.43234,-1.10472 -0.43228,-1.44093 -6e-5,-1.77714 0.79244,-3.00192 2.37751,-3.67436 0.52828,-0.24015 1.08064,-0.36023 1.65707,-0.36023 1.68102,0 2.85776,0.79251 3.53025,2.37753 0.24009,0.52834 0.36018,1.08069 0.36023,1.65706 -5e-5,0.0961 -0.40832,1.36887 -1.22478,3.81844 -0.19219,0.62439 -0.28824,1.68108 -0.28819,3.17003 -5e-5,2.40154 0.50427,5.85975 1.51297,10.37464 2.5936,-5.47551 3.89044,-9.58214 3.8905,-12.31989 l -0.43228,-3.02593 0,-0.072 c -7e-5,-1.77713 0.81647,-3.00192 2.44957,-3.67435 0.52828,-0.24015 1.08063,-0.36023 1.65706,-0.36023 1.68102,0 2.88178,0.7685 3.60231,2.30547 0.28812,0.52835 0.43221,1.10471 0.43227,1.72911 -6e-5,1.34487 -0.43234,2.30548 -1.29683,2.88184 -1.34492,0.86456 -2.01735,2.97791 -2.01729,6.34006 -6e-5,2.11336 0.12001,4.15467 0.36023,6.12393 3.0739,-3.122 4.61089,-5.7637 4.61095,-7.92508 l -0.36023,-2.73775 c -6e-5,-1.68108 0.76844,-2.88185 2.30548,-3.60231 0.52828,-0.28818 1.10465,-0.43228 1.7291,-0.43228 1.72906,0 2.95384,0.76849 3.67435,2.30548 l 0.43228,1.36888 0,0.36023 c -6e-5,1.92122 -1.10477,3.38616 -3.31412,4.39481 -0.28824,3.31412 -1.10477,7.37272 -2.44957,12.17579 -0.0961,0.38425 -0.14415,0.67243 -0.14409,0.86455 -6e-5,0.33622 -0.36029,0.88857 -1.08069,1.65707 l -0.86455,1.08069 c -2.30554,2.64169 -3.45828,4.46686 -3.45822,5.47551 -6e-5,0.28818 0.57631,1.77714 1.72911,4.46686 0.19207,0.96061 0.28812,1.80115 0.28818,2.52161 m -15.634,-41.21038 c -0.91265,0 -1.48902,0.4563 -1.72912,1.36888 -0.0481,0.14409 -0.0721,0.28818 -0.072,0.43227 -6e-5,0.91259 0.45622,1.48895 1.36886,1.72911 0.14403,0.048 0.28814,0.072 0.43229,0.072 1.15268,0 1.72904,-0.60038 1.7291,-1.80116 -6e-5,-0.86455 -0.40831,-1.44092 -1.22479,-1.7291 -0.14414,-0.048 -0.31225,-0.072 -0.50431,-0.072 m 12.9683,28.09799 c -6e-5,-1.53699 -4.32283,-2.30549 -12.9683,-2.30549 -8.69357,0 -13.04035,0.79252 -13.04035,2.37754 0,0.67242 0.62439,1.00864 1.87319,1.00864 1.44093,0 3.24208,-0.12008 5.40347,-0.36023 l 4.68299,-0.14409 1.15275,0 c 1.34479,0 3.89041,0.12007 7.63688,0.36023 l 3.53026,0.14409 c 1.15268,0 1.72905,-0.36023 1.72911,-1.08069"
         id="path1742"
         style="font-size:12px;font-style:normal;font-weight:normal;fill:&stroke_color;;fill-opacity:1;stroke:none;font-family:Bitstream Vera Sans" />
    </g>
</svg>
